<svg width="58" height="54" viewBox="0 0 58 54" fill="none" xmlns="http://www.w3.org/2000/svg">
<path d="M52.75 38.25V29.25C52.75 16.8236 42.1168 6.75 29 6.75C15.8832 6.75 5.25 16.8236 5.25 29.25V38.25M18.3125 47.25C15.0333 47.25 12.375 44.7316 12.375 41.625V34.875C12.375 31.7684 15.0333 29.25 18.3125 29.25C21.5917 29.25 24.25 31.7684 24.25 34.875V41.625C24.25 44.7316 21.5917 47.25 18.3125 47.25ZM39.6875 47.25C36.4083 47.25 33.75 44.7316 33.75 41.625V34.875C33.75 31.7684 36.4083 29.25 39.6875 29.25C42.9667 29.25 45.625 31.7684 45.625 34.875V41.625C45.625 44.7316 42.9667 47.25 39.6875 47.25Z" stroke="white" stroke-width="2.11906" stroke-linecap="round" stroke-linejoin="round"/>
</svg>
