<svg width="80" height="59" viewBox="0 0 80 59" fill="none" xmlns="http://www.w3.org/2000/svg">
<g clip-path="url(#clip0_1463_12398)">
<path d="M63.7711 41.2799C63.6995 41.2531 61.9801 40.558 58.3487 40.3887C56.719 40.337 55.0879 40.422 53.4725 40.6427C53.6605 40.1595 53.7225 39.6369 53.6528 39.1234C53.5831 38.61 53.384 38.1225 53.074 37.7062L52.8143 37.3542C52.6707 37.1719 52.4613 37.0524 52.2307 37.021C52 36.9897 51.7661 37.0489 51.5786 37.1863C51.3911 37.3236 51.2647 37.5282 51.2263 37.7567C51.1878 37.9852 51.2402 38.2196 51.3725 38.4103L51.6322 38.7623C51.7345 38.9 51.8085 39.0564 51.8499 39.2226C51.8913 39.3888 51.8994 39.5616 51.8736 39.7309C51.8478 39.9002 51.7887 40.0628 51.6996 40.2093C51.6105 40.3558 51.4933 40.4834 51.3546 40.5848L50.5396 41.1818C50.4022 41.2848 50.2454 41.3592 50.0784 41.4006C49.9115 41.4419 49.7379 41.4494 49.568 41.4225C49.3982 41.3969 49.2351 41.338 49.0883 41.2493C48.9415 41.1606 48.8139 41.0437 48.7127 40.9056L45.5202 36.6012C45.3145 36.3239 45.2277 35.9768 45.2789 35.636C45.3301 35.2951 45.5151 34.9884 45.7933 34.7832L46.6127 34.1816C46.7496 34.0772 46.906 34.0009 47.0729 33.9573C47.2397 33.9137 47.4136 33.9036 47.5844 33.9276C47.7542 33.9515 47.9175 34.0091 48.0644 34.0972C48.2114 34.1852 48.339 34.3018 48.4396 34.4401L49.2456 35.5273C49.3867 35.7165 49.5973 35.8424 49.8314 35.8774C50.0655 35.9125 50.3041 35.8539 50.4949 35.7145C50.59 35.6452 50.6704 35.558 50.7316 35.4578C50.7928 35.3576 50.8335 35.2463 50.8514 35.1304C50.8692 35.0145 50.864 34.8962 50.8358 34.7823C50.8077 34.6685 50.7573 34.5612 50.6874 34.4668L50.2396 33.8563C50.3611 33.878 50.4837 33.8929 50.6068 33.9009H50.9202C51.877 33.9009 52.8033 33.5665 53.5376 32.9562C54.272 32.346 54.7677 31.4985 54.9382 30.5617C55.1088 29.6249 54.9435 28.6582 54.471 27.8303C53.9985 27.0024 53.249 26.3659 52.3531 26.0318C52.9415 25.5285 53.3737 24.8688 53.5991 24.1299C53.8244 23.3911 53.8335 22.6036 53.6254 21.8597C53.4173 21.1159 53.0005 20.4464 52.4239 19.9298C51.8472 19.4131 51.1346 19.0706 50.3695 18.9424C50.5603 18.8264 50.7415 18.6952 50.9113 18.5503C51.3203 18.2044 51.6558 17.7806 51.898 17.3039C52.1402 16.8272 52.2843 16.3072 52.3217 15.7743C52.3982 14.7005 52.0438 13.6403 51.3363 12.826C50.6288 12.0117 49.6258 11.5096 48.5471 11.4298C48.4307 11.4298 48.3142 11.4298 48.1978 11.4298C48.4973 10.913 48.6763 10.3359 48.7217 9.741C48.7803 9.02942 48.6496 8.31504 48.3429 7.66963C48.0361 7.02422 47.5641 6.4705 46.9742 6.06411C46.3843 5.65772 45.6974 5.41297 44.9824 5.35444C44.2673 5.29591 43.5494 5.42567 42.9007 5.73068C42.9007 5.67276 42.9007 5.61037 42.9007 5.55245C42.9589 4.75391 42.7786 3.95609 42.3827 3.25911C41.9868 2.56213 41.3928 1.99706 40.6754 1.63483C39.9579 1.2726 39.1489 1.12934 38.3499 1.22304C37.5508 1.31674 36.7975 1.64322 36.1842 2.16151C35.8037 2.48568 35.4864 2.87691 35.2484 3.31558C35.1898 2.34384 34.7823 1.42541 34.1001 0.727706C33.4179 0.030006 32.5065 -0.40049 31.532 -0.4853C30.9967 -0.527701 30.4584 -0.464076 29.9481 -0.298105C29.4377 -0.132134 28.9655 0.132888 28.5588 0.481631C27.8899 1.04053 27.4217 1.80053 27.2244 2.6472C27.063 2.10695 26.7905 1.60597 26.4243 1.17604C26.0581 0.746102 25.6061 0.396588 25.0969 0.149658C24.5878 -0.0972723 24.0327 -0.23623 23.4667 -0.258404C22.9008 -0.280579 22.3364 -0.185485 21.8093 0.0208454C21.2823 0.227176 20.804 0.540242 20.405 0.940192C20.0059 1.34014 19.6947 1.81825 19.4911 2.3442C19.2875 2.87014 19.1959 3.43245 19.2222 3.99547C19.2485 4.55849 19.392 5.10993 19.6438 5.61483C19.0131 5.45898 18.3541 5.45615 17.7222 5.60659C17.0902 5.75702 16.5039 6.05631 16.0124 6.47928C15.5288 6.89084 15.1487 7.40927 14.9024 7.99314C14.6561 8.57702 14.5505 9.21013 14.594 9.84187C14.6375 10.4736 14.8289 11.0865 15.153 11.6314C15.477 12.1764 15.9246 12.6384 16.4601 12.9804C15.8093 13.1764 15.2179 13.531 14.7397 14.012C14.2615 14.4931 13.9115 15.0853 13.7216 15.7351C13.5317 16.3848 13.5078 17.0715 13.6522 17.7327C13.7965 18.394 14.1045 19.0089 14.5482 19.5217C14.8969 19.9279 15.3229 20.2614 15.8016 20.503C16.2804 20.7447 16.8024 20.8897 17.3378 20.9298H17.6243C17.1591 21.507 16.8611 22.1997 16.7625 22.9331C16.6639 23.6665 16.7683 24.4128 17.0646 25.0915C17.3609 25.7702 17.8378 26.3555 18.4438 26.7842C19.0498 27.213 19.762 27.4689 20.5035 27.5245H20.8214C21.7588 27.5268 22.6677 27.2037 23.3916 26.611C23.3285 26.8458 23.288 27.086 23.2707 27.3284C23.2279 27.8632 23.2922 28.4012 23.4596 28.9111C23.6271 29.421 23.8945 29.8929 24.2463 30.2994C24.5982 30.7058 25.0275 31.0389 25.5094 31.2792C25.9914 31.5196 26.5165 31.6625 27.0543 31.6997H27.3677C28.0837 31.7003 28.7869 31.5112 29.4051 31.1516C29.4051 31.2318 29.3827 31.3165 29.3737 31.4011C29.2922 32.4765 29.6431 33.54 30.3492 34.3579C31.0554 35.1759 32.0589 35.6815 33.1394 35.7635H33.4529C34.2656 35.7658 35.0601 35.5235 35.732 35.0683C35.653 36.1417 36.0052 37.2024 36.7112 38.0177C37.4171 38.8331 38.4193 39.3364 39.4977 39.4173H39.8111C40.6479 39.4168 41.4642 39.1599 42.1492 38.6816C42.8341 38.2032 43.3545 37.5267 43.6396 36.7438C43.7413 37.0622 43.8923 37.3629 44.0873 37.6349L47.2709 41.9483C47.5108 42.275 47.8137 42.5509 48.162 42.7598C48.5103 42.9687 48.8969 43.1063 49.2993 43.1647C49.4474 43.1886 49.5971 43.2006 49.7471 43.2004C50.0146 43.2 50.2809 43.1656 50.5396 43.0979C50.7078 44.9717 51.0571 46.825 51.5829 48.6321C52.5949 52.1077 53.6874 53.596 53.7322 53.6584C53.8758 53.8407 54.0852 53.9602 54.3158 53.9916C54.5465 54.0229 54.7804 53.9636 54.9679 53.8263C55.1554 53.689 55.2818 53.4844 55.3202 53.2559C55.3587 53.0274 55.3063 52.793 55.174 52.6023C55.174 52.6023 54.2158 51.2655 53.3024 48.1464C53.1994 47.7989 53.1098 47.4558 53.0247 47.1171C53.2576 47.5627 53.5128 48.0083 53.7859 48.4539C55.6755 51.573 57.1173 52.7093 57.18 52.7538C57.3648 52.8987 57.5993 52.9654 57.8331 52.9395C58.0668 52.9137 58.281 52.7973 58.4293 52.6157C58.5781 52.4318 58.6476 52.1967 58.6224 51.962C58.5972 51.7272 58.4794 51.512 58.2949 51.3636C58.2949 51.3636 57.0591 50.3476 55.4024 47.6652C57.7487 50.4323 59.3517 51.3502 59.4323 51.3903C59.6383 51.5085 59.8831 51.5404 60.1128 51.479C60.3424 51.4175 60.5382 51.2678 60.6569 51.0628C60.7757 50.8578 60.8077 50.6142 60.746 50.3856C60.6843 50.1571 60.5338 49.9623 60.3278 49.8441C60.3278 49.8441 58.8994 49.0019 56.7905 46.5156C56.4054 46.07 56.0516 45.6244 55.7292 45.1788C56.3069 45.406 56.9158 45.6689 57.5203 45.9719C60.4532 47.4156 61.6039 48.5786 61.6129 48.5876C61.6967 48.675 61.7974 48.7446 61.909 48.7921C62.0206 48.8395 62.1408 48.864 62.2622 48.8638C62.4367 48.8632 62.6072 48.8119 62.7528 48.7161C62.8983 48.6204 63.0126 48.4844 63.0816 48.3249C63.1506 48.1654 63.1712 47.9893 63.141 47.8182C63.1107 47.6472 63.031 47.4887 62.9114 47.3622C62.8577 47.3043 61.5681 45.9764 58.3129 44.3767C61.3308 45.3303 62.6025 46.2705 62.6114 46.2794C62.7683 46.3985 62.9603 46.4627 63.1577 46.4621C63.3441 46.4615 63.5258 46.403 63.6772 46.2948C63.8287 46.1866 63.9424 46.034 64.0026 45.8584C64.0627 45.6827 64.0663 45.4928 64.0127 45.3151C63.9592 45.1373 63.8513 44.9806 63.704 44.8669C63.6458 44.8223 62.1681 43.7083 58.6979 42.6389C58.1964 42.483 57.6994 42.3448 57.2248 42.2245H58.2815C61.5502 42.3537 63.0771 42.9553 63.0905 42.9597C63.1987 43.0032 63.3142 43.0259 63.4308 43.0266C63.6572 43.0566 63.8865 42.9994 64.0718 42.8667C64.2572 42.734 64.3847 42.5359 64.4281 42.3128C64.4716 42.0897 64.4278 41.8586 64.3057 41.6666C64.1835 41.4746 63.9923 41.3362 63.7711 41.2799ZM52.6531 28.3578C52.8511 28.5846 53.0018 28.8483 53.0964 29.1337C53.191 29.419 53.2275 29.7203 53.2038 30.0198C53.184 30.3213 53.1042 30.6158 52.9691 30.8863C52.834 31.1569 52.6462 31.398 52.4167 31.5957C52.1872 31.7935 51.9205 31.9439 51.6321 32.0382C51.3437 32.1325 51.0393 32.1689 50.7366 32.1453C50.1393 32.1089 49.5799 31.8415 49.1779 31.4002C48.776 30.9588 48.5635 30.3786 48.5857 29.7834C48.6079 29.1882 48.8631 28.6253 49.2968 28.2149C49.7305 27.8044 50.3083 27.5791 50.9068 27.5869H51.0814C51.3817 27.6084 51.6748 27.6887 51.9437 27.8233C52.2127 27.9579 52.4522 28.1441 52.6486 28.3711L52.6531 28.3578ZM51.4307 21.4778C51.6774 21.762 51.8499 22.1023 51.933 22.4686C52.0161 22.8349 52.0073 23.216 51.9072 23.5781C51.8072 23.9402 51.6191 24.2721 51.3595 24.5447C51.0998 24.8172 50.7768 25.0219 50.4188 25.1407C50.0608 25.2594 49.6789 25.2886 49.3069 25.2256C48.9349 25.1625 48.5842 25.0093 48.2858 24.7793C47.9875 24.5494 47.7507 24.2498 47.5963 23.9072C47.4419 23.5645 47.3748 23.1892 47.4008 22.8146C47.4447 22.2413 47.7042 21.7055 48.1274 21.314C48.5506 20.9226 49.1066 20.7042 49.6844 20.7025H49.8635C50.4676 20.7474 51.0301 21.0257 51.4307 21.4778ZM48.2471 13.1988H48.4217C48.7937 13.2322 49.1518 13.3556 49.465 13.5581C49.7781 13.7607 50.0368 14.0363 50.2185 14.361C50.4002 14.6858 50.4994 15.0498 50.5076 15.4213C50.5157 15.7929 50.4324 16.1609 50.2651 16.4932C50.0978 16.8254 49.8514 17.112 49.5474 17.3279C49.2434 17.5438 48.891 17.6826 48.5208 17.7321C48.1506 17.7816 47.7739 17.7403 47.4234 17.6119C47.0729 17.4834 46.7593 17.2718 46.5097 16.9952C46.3123 16.7682 46.1622 16.5043 46.0684 16.2189C45.9747 15.9335 45.939 15.6324 45.9635 15.3332C46.002 14.7558 46.2591 14.2145 46.6829 13.8184C47.1067 13.4223 47.6657 13.2009 48.2471 13.1988ZM43.1739 7.69128C43.5876 7.33413 44.1172 7.13789 44.6649 7.13875H44.8396C45.4462 7.18518 46.0096 7.46874 46.4067 7.92744C46.7031 8.26898 46.8911 8.69031 46.9468 9.13815C47.0025 9.58599 46.9235 10.0402 46.7198 10.4434C46.5161 10.8465 46.1969 11.1805 45.8024 11.4031C45.408 11.6257 44.956 11.7269 44.5038 11.6938C44.0515 11.6608 43.6193 11.495 43.2617 11.2175C42.9041 10.94 42.6373 10.5632 42.4949 10.1348C42.3526 9.7063 42.3411 9.24547 42.462 8.81053C42.5828 8.37559 42.8306 7.98609 43.1739 7.69128ZM37.3977 3.52056C37.741 3.23087 38.1625 3.04819 38.6095 2.9953C39.0565 2.9424 39.5093 3.02163 39.9113 3.2231C40.3134 3.42458 40.6469 3.73938 40.8704 4.12825C41.0938 4.51712 41.1973 4.96286 41.1679 5.40986C41.1216 6.01375 40.8361 6.57459 40.3742 6.96902C39.9124 7.36344 39.312 7.55913 38.7052 7.51304C38.0983 7.46696 37.5347 7.18286 37.1384 6.72326C36.742 6.26365 36.5454 5.66619 36.5917 5.0623C36.6149 4.76596 36.6969 4.47714 36.833 4.21252C36.969 3.94789 37.1564 3.71271 37.3843 3.52056H37.3977ZM29.7095 1.84514C30.1233 1.48799 30.6529 1.29175 31.2006 1.29261H31.3797C31.6808 1.31543 31.9744 1.39703 32.2437 1.53277C32.5131 1.66851 32.753 1.85571 32.9496 2.0837C33.1463 2.31169 33.2959 2.57599 33.39 2.86152C33.484 3.14704 33.5206 3.44821 33.4976 3.74781C33.4747 4.04741 33.3927 4.33958 33.2563 4.60764C33.1199 4.8757 32.9318 5.1144 32.7027 5.31012C32.4736 5.50583 32.208 5.65472 31.9211 5.74829C31.6341 5.84186 31.3315 5.87827 31.0305 5.85545C30.5753 5.82634 30.1393 5.66281 29.778 5.38576C29.4168 5.10871 29.1468 4.73074 29.0026 4.30017C28.8583 3.86961 28.8465 3.40603 28.9684 2.9687C29.0903 2.53137 29.3406 2.14017 29.6872 1.84514H29.7095ZM21.8154 2.09021C22.2292 1.73306 22.7588 1.53683 23.3065 1.53768H23.4722C23.9267 1.56931 24.3615 1.73475 24.7213 2.01295C25.0811 2.29116 25.3496 2.66957 25.4927 3.10005C25.6358 3.53054 25.6471 3.99365 25.525 4.4305C25.4029 4.86735 25.153 5.25819 24.8071 5.55333C24.4612 5.84847 24.0349 6.03457 23.5824 6.08796C23.1299 6.14136 22.6717 6.05963 22.2661 5.85318C21.8604 5.64672 21.5256 5.32487 21.3042 4.92855C21.0828 4.53223 20.9849 4.07935 21.0229 3.6275C21.0467 3.33193 21.129 3.04396 21.265 2.78014C21.401 2.51632 21.5881 2.28185 21.8154 2.09021ZM16.384 9.38898C16.4279 8.81564 16.6874 8.27983 17.1106 7.88838C17.5339 7.49692 18.0898 7.27858 18.6676 7.27688H18.8467C19.4525 7.32359 20.015 7.60722 20.4111 8.0657C20.8072 8.52418 21.0046 9.12016 20.9602 9.72317C20.939 10.0225 20.858 10.3147 20.7219 10.5825C20.5858 10.8503 20.3974 11.0884 20.1676 11.2827C19.8238 11.578 19.3997 11.765 18.9489 11.82C18.4982 11.8751 18.0411 11.7956 17.6358 11.5918C17.2305 11.388 16.8951 11.0689 16.6723 10.6752C16.4494 10.2814 16.3491 9.83065 16.384 9.38007V9.38898ZM17.4721 19.1519C16.8845 19.1004 16.3394 18.826 15.9496 18.3855C15.5598 17.9449 15.3552 17.3721 15.3782 16.7856C15.4012 16.199 15.6501 15.6438 16.0732 15.2349C16.4964 14.826 17.0614 14.5947 17.6512 14.589H17.8258C18.4327 14.6345 18.9965 14.918 19.3933 15.3772C19.79 15.8364 19.9872 16.4336 19.9415 17.0375C19.8958 17.6414 19.6109 18.2025 19.1495 18.5973C18.688 18.9922 18.0879 19.1884 17.481 19.1429L17.4721 19.1519ZM22.308 25.2119C22.0279 25.4519 21.6936 25.6209 21.3337 25.7046C20.9738 25.7883 20.5989 25.7841 20.2409 25.6925C19.883 25.6008 19.5526 25.4244 19.2779 25.1783C19.0033 24.9321 18.7925 24.6236 18.6636 24.2788C18.5347 23.9341 18.4914 23.5635 18.5375 23.1986C18.5835 22.8336 18.7176 22.4852 18.9282 22.1829C19.1388 21.8807 19.4198 21.6336 19.7471 21.4627C20.0744 21.2918 20.4383 21.2022 20.8079 21.2016H20.9871C21.4392 21.2367 21.8708 21.4043 22.2274 21.6831C22.584 21.962 22.8497 22.3396 22.9909 22.7685C23.1322 23.1974 23.1427 23.6583 23.0212 24.0931C22.8996 24.5279 22.6515 24.9172 22.308 25.2119ZM28.8454 29.3826C28.5651 29.6227 28.2307 29.7918 27.8705 29.8754C27.5104 29.9591 27.1353 29.9548 26.7772 29.8629C26.4191 29.7711 26.0887 29.5943 25.8141 29.3479C25.5395 29.1014 25.3289 28.7925 25.2002 28.4475C25.0715 28.1025 25.0286 27.7316 25.0752 27.3665C25.1217 27.0015 25.2563 26.653 25.4675 26.3509C25.6787 26.0488 25.9602 25.802 26.2879 25.6316C26.6157 25.4612 26.98 25.3723 27.3498 25.3723H27.5021C27.8026 25.3948 28.0958 25.4762 28.3648 25.6116C28.6337 25.747 28.8732 25.9339 29.0695 26.1615C29.2658 26.3891 29.4151 26.6531 29.5088 26.9382C29.6025 27.2233 29.6387 27.524 29.6155 27.823C29.5972 28.1208 29.5197 28.4119 29.3875 28.6796C29.2553 28.9473 29.071 29.1863 28.8454 29.3826ZM34.926 33.482C34.6459 33.7246 34.3108 33.896 33.9495 33.9815C33.5883 34.067 33.2116 34.064 32.8517 33.9729C32.4918 33.8817 32.1595 33.7051 31.8832 33.4582C31.607 33.2112 31.395 32.9013 31.2654 32.555C31.1359 32.2087 31.0927 31.8363 31.1394 31.4697C31.1862 31.1031 31.3216 30.7532 31.534 30.4501C31.7464 30.147 32.0295 29.8996 32.359 29.7292C32.6885 29.5588 33.0547 29.4705 33.426 29.4717H33.6051C34.0573 29.5069 34.4888 29.6744 34.8454 29.9533C35.2021 30.2321 35.4677 30.6098 35.609 31.0387C35.7503 31.4676 35.7608 31.9284 35.6392 32.3633C35.5177 32.7981 35.2695 33.1874 34.926 33.482ZM41.2798 37.1403C41.0519 37.3363 40.7874 37.4856 40.5014 37.5796C40.2154 37.6736 39.9135 37.7104 39.6132 37.6881C39.3128 37.6657 39.0199 37.5846 38.7511 37.4493C38.4823 37.314 38.243 37.1272 38.047 36.8997C37.7593 36.5689 37.5733 36.1626 37.5111 35.7295C37.449 35.2964 37.5133 34.8546 37.6964 34.4568C37.8795 34.0591 38.1737 33.7221 38.5439 33.486C38.914 33.25 39.3446 33.1249 39.7843 33.1256H39.9589C40.414 33.1547 40.8501 33.3182 41.2113 33.5953C41.5726 33.8723 41.8426 34.2503 41.9868 34.6808C42.131 35.1114 42.1429 35.575 42.021 36.0123C41.899 36.4496 41.6488 36.8408 41.3022 37.1359L41.2798 37.1403ZM43.7694 34.5247C43.6275 33.8647 43.3193 33.2514 42.8739 32.7424C42.2221 31.9887 41.3152 31.499 40.325 31.366C39.3348 31.233 38.33 31.4658 37.5007 32.0205C37.5532 31.2843 37.4034 30.5478 37.0675 29.8898C36.7315 29.2318 36.2221 28.6772 35.5936 28.2853C34.9652 27.8934 34.2414 27.679 33.4999 27.665C32.7584 27.6511 32.027 27.8382 31.3842 28.2063C31.3978 28.1251 31.4068 28.0433 31.4111 27.9612C31.4725 27.1695 31.2993 26.3774 30.9129 25.6827C30.5265 24.988 29.9439 24.4214 29.2371 24.0529C28.5304 23.6844 27.7306 23.5303 26.9367 23.6096C26.1428 23.6888 25.3897 23.9981 24.7707 24.4989C24.8301 24.2651 24.8691 24.0265 24.8871 23.786C24.9686 22.7107 24.6177 21.6472 23.9116 20.8292C23.2055 20.0112 22.2019 19.5057 21.1214 19.4237C21.0259 19.4237 20.9318 19.4237 20.8393 19.4237C21.1955 18.9785 21.4539 18.4639 21.5978 17.9131C21.7416 17.3623 21.7678 16.7876 21.6745 16.2261C21.5813 15.6647 21.3707 15.1289 21.0563 14.6535C20.742 14.1781 20.331 13.7736 19.8497 13.4661C20.3975 13.3061 20.9044 13.0311 21.3363 12.6596C22.0257 12.0717 22.4987 11.272 22.6803 10.3867C22.8619 9.50151 22.742 8.58128 22.3393 7.77149C22.5574 7.82152 22.7789 7.85577 23.002 7.87397H23.3154C24.2384 7.87068 25.1332 7.55736 25.8549 6.98477C26.5766 6.41218 27.0828 5.61387 27.2916 4.71919C27.4532 5.26624 27.7311 5.7723 28.1065 6.20301C28.4514 6.61578 28.8759 6.95546 29.3551 7.20192C29.8343 7.44838 30.3583 7.59661 30.8961 7.63781H31.2096C31.9451 7.63386 32.6659 7.43272 33.2963 7.05556C33.9267 6.67839 34.4432 6.13914 34.7917 5.49452C34.8505 6.47644 35.2649 7.40389 35.9581 8.10516C36.6513 8.80643 37.5763 9.23402 38.5619 9.30877H38.8753C39.4667 9.31052 40.051 9.18114 40.5858 8.93002V9.1038C40.5043 10.1791 40.8552 11.2426 41.5613 12.0606C42.2674 12.8786 43.271 13.3841 44.3515 13.4661H44.6649H44.6918C44.3664 14.035 44.1837 14.6737 44.1594 15.3278C44.135 15.982 44.2696 16.6324 44.5518 17.2237C44.8339 17.815 45.2553 18.3299 45.7801 18.7245C46.305 19.1191 46.9178 19.3819 47.5665 19.4905C47.3756 19.6066 47.1944 19.7377 47.0247 19.8826C46.4862 20.3426 46.0775 20.9343 45.8388 21.5994C45.6002 22.2644 45.5398 22.9799 45.6636 23.6753C45.7874 24.3706 46.0913 25.0219 46.5451 25.5648C46.9989 26.1078 47.587 26.5236 48.2515 26.7715C47.4955 27.4213 47.0053 28.3247 46.8741 29.3103C46.7429 30.2959 46.9797 31.2951 47.5396 32.1185C46.827 32.085 46.1247 32.2975 45.5515 32.7201L44.7366 33.3172C44.3205 33.6264 43.9881 34.0337 43.7694 34.5024V34.5247Z" fill="white"/>
</g>
<defs>
<clipPath id="clip0_1463_12398">
<rect width="80" height="59" fill="white"/>
</clipPath>
</defs>
</svg>
