<svg width="20" height="20" viewBox="0 0 20 20" fill="none" xmlns="http://www.w3.org/2000/svg">
<g id="bell" clip-path="url(#clip0_1579_11243)">
<g id="Group">
<path id="Vector" d="M0 15.3169C0 15.6717 0.141318 15.9555 0.423954 16.1684C0.70659 16.3813 1.09875 16.4877 1.60043 16.4877H6.07314C6.10141 17.1134 6.28689 17.6908 6.62958 18.2197C6.97228 18.7487 7.43333 19.176 8.01273 19.5017C8.59213 19.8275 9.25279 19.9904 9.99471 19.9904C10.7437 19.9904 11.4079 19.8291 11.9873 19.5066C12.5667 19.184 13.0277 18.7567 13.3704 18.2246C13.7132 17.6924 13.8986 17.1134 13.9269 16.4877H18.3996C18.9013 16.4877 19.2935 16.3813 19.5761 16.1684C19.8587 15.9555 20 15.6717 20 15.3169C20 14.9944 19.8975 14.6815 19.6926 14.3783C19.4877 14.0752 19.2316 13.7784 18.9242 13.4882C18.6169 13.1979 18.3113 12.9076 18.0075 12.6174C17.7743 12.398 17.5923 12.1109 17.4616 11.7562C17.3309 11.4014 17.2337 11.0241 17.1701 10.6242C17.1065 10.2242 17.0606 9.83715 17.0324 9.46301C17.0112 8.19224 16.8646 7.07468 16.5925 6.11032C16.3205 5.14595 15.8983 4.34125 15.3259 3.69619C14.7536 3.05113 13.9976 2.57379 13.0577 2.26416C12.8811 1.632 12.5225 1.0966 11.982 0.657959C11.4415 0.21932 10.7791 0 9.99471 0C9.21747 0 8.55858 0.21932 8.01804 0.657959C7.47749 1.0966 7.11889 1.632 6.94224 2.26416C6.00249 2.57379 5.24467 3.05113 4.6688 3.69619C4.09293 4.34125 3.67074 5.14595 3.40224 6.11032C3.13373 7.07468 2.98888 8.19224 2.96768 9.46301C2.93942 9.83715 2.89348 10.2242 2.82989 10.6242C2.7663 11.0241 2.66914 11.4014 2.53843 11.7562C2.40771 12.1109 2.22576 12.398 1.99259 12.6174C1.68875 12.9076 1.38315 13.1979 1.07578 13.4882C0.768417 13.7784 0.512278 14.0752 0.307367 14.3783C0.102456 14.6815 0 14.9944 0 15.3169ZM2.05618 15.0266V14.9105C2.11977 14.8202 2.22576 14.6993 2.37414 14.5477C2.52253 14.3961 2.69034 14.23 2.87759 14.0494C3.06484 13.8687 3.25032 13.6849 3.43403 13.4978C3.6248 13.3043 3.79085 13.0802 3.93218 12.8253C4.07349 12.5706 4.19361 12.2819 4.29254 11.9594C4.39146 11.6368 4.46918 11.2788 4.52571 10.8853C4.58224 10.4919 4.62464 10.0597 4.6529 9.58879C4.68116 8.18257 4.84014 7.06662 5.12984 6.24095C5.41954 5.41527 5.8064 4.80085 6.29042 4.39769C6.77443 3.99452 7.32027 3.71554 7.92795 3.56072C8.06219 3.53492 8.16465 3.48816 8.23531 3.42043C8.30597 3.35269 8.34483 3.25755 8.35189 3.13498C8.37309 2.63184 8.53031 2.22061 8.82354 1.90132C9.11678 1.58201 9.50717 1.42236 9.99471 1.42236C10.4893 1.42236 10.8833 1.58201 11.1765 1.90132C11.4697 2.22061 11.6269 2.63184 11.6481 3.13498C11.6481 3.25755 11.6852 3.35269 11.7595 3.42043C11.8336 3.48816 11.9343 3.53492 12.0615 3.56072C12.6692 3.71554 13.215 3.99452 13.6991 4.39769C14.183 4.80085 14.5716 5.41527 14.8649 6.24095C15.1582 7.06662 15.3189 8.18257 15.3471 9.58879C15.3683 10.0597 15.4089 10.4919 15.469 10.8853C15.529 11.2788 15.6068 11.6368 15.7022 11.9594C15.7976 12.2819 15.9159 12.5706 16.0572 12.8253C16.1985 13.0802 16.3646 13.3043 16.5554 13.4978C16.7462 13.6849 16.9352 13.8687 17.1225 14.0494C17.3097 14.23 17.4758 14.3961 17.6206 14.5477C17.7654 14.6993 17.8696 14.8202 17.9332 14.9105V15.0266H2.05618ZM7.72656 16.4877H12.2735C12.2311 17.1456 12.0014 17.6665 11.5845 18.0504C11.1677 18.4342 10.6377 18.626 9.99471 18.626C9.35879 18.626 8.83061 18.4342 8.41019 18.0504C7.98977 17.6665 7.76189 17.1456 7.72656 16.4877Z" fill="white"/>
</g>
</g>
<defs>
<clipPath id="clip0_1579_11243">
<rect width="20" height="20" fill="white"/>
</clipPath>
</defs>
</svg>
