<svg width="22" height="22" viewBox="0 0 22 22" fill="none" xmlns="http://www.w3.org/2000/svg">
<g id="weather/moon-half" clip-path="url(#clip0_1_13787)">
<path id="Vector" d="M11.0001 0.916016C9.00579 0.916016 7.05628 1.50739 5.39809 2.61536C3.73989 3.72333 2.44748 5.29814 1.6843 7.14062C0.921117 8.98311 0.721433 11.0105 1.1105 12.9665C1.49957 14.9225 2.45991 16.7192 3.87009 18.1293C5.28027 19.5395 7.07695 20.4999 9.03293 20.8889C10.9889 21.278 13.0163 21.0783 14.8588 20.3151C16.7013 19.5519 18.2761 18.2595 19.3841 16.6013C20.492 14.9432 21.0834 12.9936 21.0834 10.9993C21.0803 8.32605 20.0169 5.76315 18.1266 3.87284C16.2363 1.98253 13.6734 0.919169 11.0001 0.916016ZM17.4342 16.1501C16.5693 17.2322 15.4458 18.0789 14.1673 18.6121C12.8888 19.1453 11.4966 19.3477 10.1192 19.2008C8.74175 19.0538 7.42358 18.5621 6.28637 17.7712C5.14916 16.9802 4.22958 15.9155 3.61253 14.6753C2.99549 13.4351 2.70088 12.0594 2.75591 10.6753C2.81094 9.29114 3.21383 7.94319 3.92739 6.75589C4.64095 5.56859 5.64216 4.58022 6.83857 3.88205C8.03499 3.18388 9.38803 2.79842 10.7728 2.76127C10.2608 4.07263 10.0296 5.4768 10.0941 6.88307C10.1586 8.28935 10.5174 9.66645 11.1472 10.9254C11.7771 12.1844 12.664 13.2973 13.7507 14.1922C14.8374 15.0871 16.0997 15.7441 17.4562 16.1208L17.4342 16.1501ZM18.4709 14.4772C17.2528 14.2286 16.1072 13.706 15.121 12.949C14.1348 12.192 13.3338 11.2205 12.7788 10.108C12.2238 8.99551 11.9293 7.77129 11.9177 6.5281C11.906 5.28492 12.1775 4.05538 12.7115 2.93268C13.9268 3.1873 15.0686 3.71369 16.0515 4.4724C17.0344 5.2311 17.8328 6.20244 18.3869 7.31361C18.941 8.42478 19.2364 9.64694 19.2509 10.8885C19.2655 12.1301 18.9988 13.3588 18.4709 14.4827V14.4772Z" fill="white"/>
</g>
<defs>
<clipPath id="clip0_1_13787">
<rect width="22" height="22" fill="white"/>
</clipPath>
</defs>
</svg>
