<svg width="34" height="34" viewBox="0 0 34 34" fill="none" xmlns="http://www.w3.org/2000/svg">
<g id="muslim (1) 1" clip-path="url(#clip0_1579_2830)">
<g id="Group">
<path id="Vector" d="M29.3516 11.9207V5.64453C29.3516 5.09442 28.9056 4.64844 28.3555 4.64844H22.0793L17.7028 0.290262C17.3141 -0.0967539 16.6858 -0.0967539 16.2971 0.290262L11.9207 4.64844H5.64453C5.09442 4.64844 4.64844 5.09442 4.64844 5.64453V11.9207L0.290262 16.2972C-0.0967539 16.6858 -0.0967539 17.3142 0.290262 17.7029L4.64844 22.0793V28.3555C4.64844 28.9056 5.09442 29.3516 5.64453 29.3516H11.9207L16.2971 33.7097C16.4915 33.9032 16.7457 34 17 34C17.2543 34 17.5085 33.9032 17.7028 33.7097L22.0793 29.3516H28.3555C28.9056 29.3516 29.3516 28.9056 29.3516 28.3555V22.0793L33.7097 17.7029C34.0968 17.3142 34.0968 16.6858 33.7097 16.2972L29.3516 11.9207ZM27.6496 20.9651C27.4638 21.1518 27.3594 21.4045 27.3594 21.6679V27.3594H21.668C21.4045 27.3594 21.1518 27.4638 20.9651 27.6496L17 31.5982L13.0349 27.6496C12.8482 27.4638 12.5955 27.3594 12.3321 27.3594H6.64062V21.668C6.64062 21.4045 6.53623 21.1518 6.35036 20.9651L2.40185 17L6.35036 13.0349C6.53623 12.8482 6.64062 12.5955 6.64062 12.3321V6.64062H12.332C12.5955 6.64062 12.8482 6.53623 13.0349 6.35036L17 2.40185L20.9651 6.35036C21.1519 6.53623 21.4045 6.64062 21.668 6.64062H27.3594V12.332C27.3594 12.5955 27.4638 12.8482 27.6496 13.0349L31.5982 17L27.6496 20.9651Z" fill="white"/>
</g>
</g>
<defs>
<clipPath id="clip0_1579_2830">
<rect width="34" height="34" fill="white"/>
</clipPath>
</defs>
</svg>
