<svg width="24" height="24" viewBox="0 0 24 24" fill="none" xmlns="http://www.w3.org/2000/svg">
<g id="interface/paper-plane">
<path id="Vector" d="M2.00899 10.8448C2.03751 11.061 2.13589 11.2619 2.28916 11.417C2.44243 11.572 2.64218 11.6728 2.85799 11.7038L11.116 12.8838L12.296 21.1418C12.3269 21.3577 12.4276 21.5575 12.5827 21.7109C12.7378 21.8643 12.9388 21.9627 13.155 21.9912C13.3712 22.0198 13.5908 21.9769 13.7804 21.869C13.97 21.7611 14.1191 21.5943 14.205 21.3938L21.919 3.39381C21.9977 3.21012 22.0195 3.00706 21.9817 2.81083C21.9439 2.6146 21.8482 2.4342 21.7069 2.29289C21.5656 2.15159 21.3852 2.05586 21.189 2.01806C20.9927 1.98025 20.7897 2.00211 20.606 2.08081L2.60599 9.79981C2.40652 9.88557 2.24039 10.0339 2.13268 10.2224C2.02498 10.411 1.98156 10.6294 2.00899 10.8448ZM13.771 17.3278L13.06 12.3538L18.036 7.37781L13.771 17.3278ZM16.621 5.96481L11.647 10.9388L6.67099 10.2288L16.621 5.96481Z" fill="white"/>
</g>
</svg>
