<svg width="72" height="22" viewBox="0 0 72 22" fill="none" xmlns="http://www.w3.org/2000/svg">
<path d="M1 6V16" stroke="#236681" stroke-linecap="round"/>
<path d="M3 1V21" stroke="#236681" stroke-linecap="round"/>
<path d="M5 3V19" stroke="#236681" stroke-linecap="round"/>
<path d="M7 6V16" stroke="#236681" stroke-linecap="round"/>
<path d="M9 1V21" stroke="#236681" stroke-linecap="round"/>
<path d="M11 3V19" stroke="#236681" stroke-linecap="round"/>
<path d="M13 6V16" stroke="#236681" stroke-linecap="round"/>
<path d="M15 16L15 6" stroke="#236681" stroke-linecap="round"/>
<path d="M17 19L17 3" stroke="#236681" stroke-linecap="round"/>
<path d="M19 21L19 1" stroke="#236681" stroke-linecap="round"/>
<path d="M21 3V19" stroke="#236681" stroke-linecap="round"/>
<path d="M23 6V16" stroke="#236681" stroke-linecap="round"/>
<path d="M25 6V16" stroke="#236681" stroke-linecap="round"/>
<path d="M27 1V21" stroke="#236681" stroke-linecap="round"/>
<path d="M29 3V19" stroke="#236681" stroke-linecap="round"/>
<path d="M31 6V16" stroke="#236681" stroke-linecap="round"/>
<path d="M33 1V21" stroke="#236681" stroke-linecap="round"/>
<path d="M35 3V19" stroke="#236681" stroke-linecap="round"/>
<path d="M37 6V16" stroke="#236681" stroke-linecap="round"/>
<path d="M39 16V6" stroke="#236681" stroke-linecap="round"/>
<path d="M41 19L41 3" stroke="#236681" stroke-linecap="round"/>
<path d="M43 21L43 1" stroke="#236681" stroke-linecap="round"/>
<path d="M45 3V19" stroke="#236681" stroke-linecap="round"/>
<path d="M47 6V16" stroke="#236681" stroke-linecap="round"/>
<path d="M49 6V16" stroke="#236681" stroke-linecap="round"/>
<path d="M51 1V21" stroke="#236681" stroke-linecap="round"/>
<path d="M53 3V19" stroke="#236681" stroke-linecap="round"/>
<path d="M55 6V16" stroke="#236681" stroke-linecap="round"/>
<path d="M57 1V21" stroke="#236681" stroke-linecap="round"/>
<path d="M59 3V19" stroke="#236681" stroke-linecap="round"/>
<path d="M61 6V16" stroke="#236681" stroke-linecap="round"/>
<path d="M63 16V6" stroke="#236681" stroke-linecap="round"/>
<path d="M65 19V3" stroke="#236681" stroke-linecap="round"/>
<path d="M67 21V1" stroke="#236681" stroke-linecap="round"/>
<path d="M69 3V19" stroke="#236681" stroke-linecap="round"/>
<path d="M71 6V16" stroke="#236681" stroke-linecap="round"/>
</svg>
