<svg width="24" height="24" viewBox="0 0 24 24" fill="none" xmlns="http://www.w3.org/2000/svg">
<g id="weather/sunrise-up">
<path id="Vector" d="M7 15.0008C7 13.6747 7.52678 12.4029 8.46447 11.4653C9.40215 10.5276 10.6739 10.0008 12 10.0008C13.3261 10.0008 14.5979 10.5276 15.5355 11.4653C16.4732 12.4029 17 13.6747 17 15.0008C17 15.266 16.8946 15.5204 16.7071 15.7079C16.5196 15.8954 16.2652 16.0008 16 16.0008C15.7348 16.0008 15.4804 15.8954 15.2929 15.7079C15.1054 15.5204 15 15.266 15 15.0008C15 14.2051 14.6839 13.4421 14.1213 12.8795C13.5587 12.3169 12.7956 12.0008 12 12.0008C11.2044 12.0008 10.4413 12.3169 9.87868 12.8795C9.31607 13.4421 9 14.2051 9 15.0008C9 15.266 8.89464 15.5204 8.70711 15.7079C8.51957 15.8954 8.26522 16.0008 8 16.0008C7.73478 16.0008 7.48043 15.8954 7.29289 15.7079C7.10536 15.5204 7 15.266 7 15.0008ZM18 10.4148L18.707 9.70779C18.8892 9.51919 18.99 9.26658 18.9877 9.00439C18.9854 8.74219 18.8802 8.49138 18.6948 8.30597C18.5094 8.12056 18.2586 8.01539 17.9964 8.01311C17.7342 8.01084 17.4816 8.11163 17.293 8.29379L16.586 9.00079C16.4905 9.09303 16.4143 9.20338 16.3619 9.32538C16.3095 9.44739 16.2819 9.57861 16.2808 9.71139C16.2796 9.84417 16.3049 9.97585 16.3552 10.0987C16.4055 10.2216 16.4797 10.3333 16.5736 10.4272C16.6675 10.5211 16.7792 10.5953 16.902 10.6456C17.0249 10.6959 17.1566 10.7212 17.2894 10.72C17.4222 10.7189 17.5534 10.6913 17.6754 10.6389C17.7974 10.5865 17.9078 10.5103 18 10.4148ZM20 16.0008H21C21.2652 16.0008 21.5196 15.8954 21.7071 15.7079C21.8946 15.5204 22 15.266 22 15.0008C22 14.7356 21.8946 14.4812 21.7071 14.2937C21.5196 14.1061 21.2652 14.0008 21 14.0008H20C19.7348 14.0008 19.4804 14.1061 19.2929 14.2937C19.1054 14.4812 19 14.7356 19 15.0008C19 15.266 19.1054 15.5204 19.2929 15.7079C19.4804 15.8954 19.7348 16.0008 20 16.0008ZM4 14.0008H3C2.73478 14.0008 2.48043 14.1061 2.29289 14.2937C2.10536 14.4812 2 14.7356 2 15.0008C2 15.266 2.10536 15.5204 2.29289 15.7079C2.48043 15.8954 2.73478 16.0008 3 16.0008H4C4.26522 16.0008 4.51957 15.8954 4.70711 15.7079C4.89464 15.5204 5 15.266 5 15.0008C5 14.7356 4.89464 14.4812 4.70711 14.2937C4.51957 14.1061 4.26522 14.0008 4 14.0008ZM5.293 9.70779L6 10.4148C6.09225 10.5103 6.20259 10.5865 6.3246 10.6389C6.4466 10.6913 6.57782 10.7189 6.7106 10.72C6.84338 10.7212 6.97506 10.6959 7.09795 10.6456C7.22085 10.5953 7.3325 10.5211 7.42639 10.4272C7.52029 10.3333 7.59454 10.2216 7.64482 10.0987C7.6951 9.97585 7.7204 9.84417 7.71925 9.71139C7.7181 9.57861 7.69051 9.44739 7.6381 9.32538C7.58569 9.20338 7.50951 9.09303 7.414 9.00079L6.707 8.29379C6.5184 8.11163 6.2658 8.01084 6.0036 8.01311C5.7414 8.01539 5.49059 8.12056 5.30518 8.30597C5.11977 8.49138 5.0146 8.74219 5.01233 9.00439C5.01005 9.26658 5.11084 9.51919 5.293 9.70779ZM4 18.0008C4 18.266 4.10536 18.5204 4.29289 18.7079C4.48043 18.8954 4.73478 19.0008 5 19.0008H19C19.2652 19.0008 19.5196 18.8954 19.7071 18.7079C19.8946 18.5204 20 18.266 20 18.0008C20 17.7356 19.8946 17.4812 19.7071 17.2937C19.5196 17.1061 19.2652 17.0008 19 17.0008H5C4.73478 17.0008 4.48043 17.1061 4.29289 17.2937C4.10536 17.4812 4 17.7356 4 18.0008ZM8 21.0008C7.73478 21.0008 7.48043 21.1061 7.29289 21.2937C7.10536 21.4812 7 21.7356 7 22.0008C7 22.266 7.10536 22.5204 7.29289 22.7079C7.48043 22.8954 7.73478 23.0008 8 23.0008H16C16.2652 23.0008 16.5196 22.8954 16.7071 22.7079C16.8946 22.5204 17 22.266 17 22.0008C17 21.7356 16.8946 21.4812 16.7071 21.2937C16.5196 21.1061 16.2652 21.0008 16 21.0008H8ZM12 9.00079C12.2652 9.00079 12.5196 8.89543 12.7071 8.70789C12.8946 8.52036 13 8.266 13 8.00079V4.41479L14.293 5.70779C14.4816 5.88995 14.7342 5.99074 14.9964 5.98846C15.2586 5.98618 15.5094 5.88101 15.6948 5.69561C15.8802 5.5102 15.9854 5.25939 15.9877 4.99719C15.99 4.73499 15.8892 4.48239 15.707 4.29379L12.707 1.29379C12.6141 1.20066 12.5038 1.12678 12.3823 1.07636C12.2608 1.02595 12.1305 1 11.999 1C11.8675 1 11.7372 1.02595 11.6157 1.07636C11.4942 1.12678 11.3839 1.20066 11.291 1.29379L8.291 4.29379C8.19816 4.38676 8.12453 4.49712 8.07434 4.61854C8.02414 4.73997 7.99835 4.8701 7.99844 5.00149C7.99863 5.26686 8.10423 5.52128 8.292 5.70879C8.47977 5.8963 8.73434 6.00153 8.99971 6.00134C9.26507 6.00116 9.51949 5.89556 9.707 5.70779L11 4.41479V8.00079C11 8.266 11.1054 8.52036 11.2929 8.70789C11.4804 8.89543 11.7348 9.00079 12 9.00079Z" fill="white"/>
</g>
</svg>
