<svg width="24" height="24" viewBox="0 0 24 24" fill="none" xmlns="http://www.w3.org/2000/svg">
<g id="weather/sunrise">
<path id="Vector" d="M23 16C23 16.2652 22.8946 16.5196 22.7071 16.7071C22.5196 16.8946 22.2652 17 22 17H2C1.73478 17 1.48043 16.8946 1.29289 16.7071C1.10536 16.5196 1 16.2652 1 16C1 15.7348 1.10536 15.4804 1.29289 15.2929C1.48043 15.1054 1.73478 15 2 15H22C22.2652 15 22.5196 15.1054 22.7071 15.2929C22.8946 15.4804 23 15.7348 23 16ZM18 21C18.2652 21 18.5196 20.8946 18.7071 20.7071C18.8946 20.5196 19 20.2652 19 20C19 19.7348 18.8946 19.4804 18.7071 19.2929C18.5196 19.1054 18.2652 19 18 19H6C5.73478 19 5.48043 19.1054 5.29289 19.2929C5.10536 19.4804 5 19.7348 5 20C5 20.2652 5.10536 20.5196 5.29289 20.7071C5.48043 20.8946 5.73478 21 6 21H18ZM7 12C7 12.2652 7.10536 12.5196 7.29289 12.7071C7.48043 12.8946 7.73478 13 8 13C8.26522 13 8.51957 12.8946 8.70711 12.7071C8.89464 12.5196 9 12.2652 9 12C9 11.2044 9.31607 10.4413 9.87868 9.87868C10.4413 9.31607 11.2044 9 12 9C12.7956 9 13.5587 9.31607 14.1213 9.87868C14.6839 10.4413 15 11.2044 15 12C15 12.2652 15.1054 12.5196 15.2929 12.7071C15.4804 12.8946 15.7348 13 16 13C16.2652 13 16.5196 12.8946 16.7071 12.7071C16.8946 12.5196 17 12.2652 17 12C17 10.6739 16.4732 9.40215 15.5355 8.46447C14.5979 7.52678 13.3261 7 12 7C10.6739 7 9.40215 7.52678 8.46447 8.46447C7.52678 9.40215 7 10.6739 7 12ZM11 5C11 5.26522 11.1054 5.51957 11.2929 5.70711C11.4804 5.89464 11.7348 6 12 6C12.2652 6 12.5196 5.89464 12.7071 5.70711C12.8946 5.51957 13 5.26522 13 5V4C13 3.73478 12.8946 3.48043 12.7071 3.29289C12.5196 3.10536 12.2652 3 12 3C11.7348 3 11.4804 3.10536 11.2929 3.29289C11.1054 3.48043 11 3.73478 11 4V5ZM18 12C18 12.2652 18.1054 12.5196 18.2929 12.7071C18.4804 12.8946 18.7348 13 19 13H20C20.2652 13 20.5196 12.8946 20.7071 12.7071C20.8946 12.5196 21 12.2652 21 12C21 11.7348 20.8946 11.4804 20.7071 11.2929C20.5196 11.1054 20.2652 11 20 11H19C18.7348 11 18.4804 11.1054 18.2929 11.2929C18.1054 11.4804 18 11.7348 18 12ZM4 11C3.73478 11 3.48043 11.1054 3.29289 11.2929C3.10536 11.4804 3 11.7348 3 12C3 12.2652 3.10536 12.5196 3.29289 12.7071C3.48043 12.8946 3.73478 13 4 13H5C5.26522 13 5.51957 12.8946 5.70711 12.7071C5.89464 12.5196 6 12.2652 6 12C6 11.7348 5.89464 11.4804 5.70711 11.2929C5.51957 11.1054 5.26522 11 5 11H4ZM5.636 5.636C5.44853 5.82353 5.34321 6.07784 5.34321 6.343C5.34321 6.60816 5.44853 6.86247 5.636 7.05L6.343 7.757C6.5316 7.93916 6.7842 8.03995 7.0464 8.03767C7.3086 8.0354 7.55941 7.93023 7.74482 7.74482C7.93023 7.55941 8.0354 7.3086 8.03767 7.0464C8.03995 6.7842 7.93916 6.5316 7.757 6.343L7.05 5.636C6.86247 5.44853 6.60816 5.34321 6.343 5.34321C6.07784 5.34321 5.82353 5.44853 5.636 5.636ZM16.95 5.636L16.243 6.343C16.1475 6.43525 16.0713 6.54559 16.0189 6.6676C15.9665 6.7896 15.9389 6.92082 15.9377 7.0536C15.9366 7.18638 15.9619 7.31806 16.0122 7.44095C16.0625 7.56385 16.1367 7.6755 16.2306 7.76939C16.3245 7.86329 16.4361 7.93754 16.559 7.98782C16.6819 8.0381 16.8136 8.0634 16.9464 8.06225C17.0792 8.0611 17.2104 8.03351 17.3324 7.9811C17.4544 7.92869 17.5648 7.85251 17.657 7.757L18.364 7.05C18.4595 6.95775 18.5357 6.84741 18.5881 6.7254C18.6405 6.6034 18.6681 6.47218 18.6693 6.3394C18.6704 6.20662 18.6451 6.07494 18.5948 5.95205C18.5445 5.82915 18.4703 5.7175 18.3764 5.62361C18.2825 5.52971 18.1709 5.45546 18.048 5.40518C17.9251 5.3549 17.7934 5.3296 17.6606 5.33075C17.5278 5.3319 17.3966 5.35949 17.2746 5.4119C17.1526 5.46431 17.0422 5.54049 16.95 5.636Z" fill="white"/>
</g>
</svg>
