<svg width="30" height="33" viewBox="0 0 30 33" fill="none" xmlns="http://www.w3.org/2000/svg">
<path d="M0.00996138 1.99785L0.104002 31.8456C0.104834 32.1095 0.203932 32.3622 0.379498 32.5482C0.555064 32.7341 0.792715 32.8381 1.04017 32.8372L29.0312 32.7369C29.2787 32.736 29.5157 32.6304 29.69 32.4431C29.8644 32.2559 29.9619 32.0025 29.9611 31.7387C29.9603 31.4748 29.8612 31.2221 29.6856 31.0361C29.51 30.8502 29.2724 30.7462 29.0249 30.7471L26.2258 30.7571L26.2164 27.7723C27.2063 27.7688 28.1542 27.3461 28.8518 26.5972C29.5493 25.8484 29.9394 24.8347 29.936 23.7792L29.911 15.8198C29.9076 14.7644 29.5112 13.7535 28.809 13.0097C28.1067 12.2658 27.1561 11.85 26.1663 11.8535L24.3002 11.8602C23.3104 11.8637 22.3624 12.2864 21.6649 13.0353C20.9673 13.7841 20.5773 14.7978 20.5806 15.8533L20.6057 23.8127C20.609 24.8682 21.0054 25.879 21.7077 26.6228C22.4099 27.3667 23.3605 27.7825 24.3504 27.779L24.3598 30.7638L18.7616 30.7838L18.6926 8.89547C18.6914 8.69506 18.6335 8.4997 18.5264 8.33498C18.4193 8.17025 18.2681 8.04386 18.0925 7.97234L1.27597 1.06803C1.13466 1.01046 0.982324 0.990391 0.832117 1.00956C0.681911 1.02873 0.538335 1.08655 0.413749 1.17806C0.289163 1.26956 0.187304 1.39199 0.116961 1.53481C0.0466183 1.67762 0.0098995 1.83653 0.00996138 1.99785ZM26.2102 25.7825L26.1914 19.8129C26.1905 19.549 26.0914 19.2963 25.9159 19.1104C25.7403 18.9244 25.5026 18.8204 25.2552 18.8213C25.0077 18.8222 24.7707 18.9279 24.5963 19.1151C24.422 19.3023 24.3245 19.5557 24.3253 19.8196L24.3441 25.7892C23.8492 25.7909 23.3739 25.583 23.0227 25.2111C22.6716 24.8392 22.4734 24.3337 22.4718 23.806L22.4467 15.8466C22.445 15.3188 22.64 14.812 22.9888 14.4376C23.3376 14.0632 23.8116 13.8518 24.3065 13.85L26.1725 13.8434C26.6675 13.8416 27.1428 14.0495 27.4939 14.4214C27.845 14.7934 28.0432 15.2988 28.0449 15.8265L28.07 23.7859C28.0716 24.3137 27.8766 24.8205 27.5278 25.1949C27.1791 25.5694 26.7051 25.7807 26.2102 25.7825ZM1.88061 3.44376L16.8287 9.5787L16.8955 30.7905L15.0294 30.7972L15.02 27.8124C15.0192 27.5486 14.9201 27.2958 14.7445 27.1099C14.569 26.9239 14.3313 26.82 14.0838 26.8208C13.8364 26.8217 13.5994 26.9274 13.425 27.1146C13.2506 27.3018 13.1531 27.5552 13.1539 27.8191L13.1634 30.8039L5.69907 30.8306L5.68967 27.8459C5.68884 27.582 5.58974 27.3293 5.41418 27.1433C5.23861 26.9574 5.00096 26.8534 4.7535 26.8543C4.50605 26.8552 4.26905 26.9608 4.09466 27.148C3.92027 27.3353 3.82277 27.5887 3.8236 27.8525L3.83301 30.8373L1.96694 30.844L1.88061 3.44376Z" fill="white"/>
<path d="M14.9916 18.8585L13.1255 18.8652L13.1318 20.8551L14.9978 20.8484L14.9916 18.8585Z" fill="white"/>
<path d="M10.3265 18.8761L8.46045 18.8828L8.46672 20.8727L10.3328 20.866L10.3265 18.8761Z" fill="white"/>
<path d="M5.66099 18.8937L3.79492 18.9004L3.80119 20.8902L5.66726 20.8836L5.66099 18.8937Z" fill="white"/>
<path d="M15.0038 22.839L13.1377 22.8457L13.144 24.8356L15.01 24.8289L15.0038 22.839Z" fill="white"/>
<path d="M10.3392 22.8546L8.47314 22.8613L8.47941 24.8512L10.3455 24.8445L10.3392 22.8546Z" fill="white"/>
<path d="M10.3514 26.8351L8.48535 26.8418L8.49162 28.8316L10.3577 28.825L10.3514 26.8351Z" fill="white"/>
<path d="M5.6732 22.8722L3.80713 22.8789L3.8134 24.8688L5.67947 24.8621L5.6732 22.8722Z" fill="white"/>
<path d="M14.9662 10.8996L13.1001 10.9062L13.1064 12.8961L14.9724 12.8894L14.9662 10.8996Z" fill="white"/>
<path d="M10.3016 10.9171L8.43555 10.9238L8.44182 12.9137L10.3079 12.907L10.3016 10.9171Z" fill="white"/>
<path d="M5.6356 10.9328L3.76953 10.9395L3.7758 12.9293L5.64187 12.9226L5.6356 10.9328Z" fill="white"/>
<path d="M5.62339 6.9523L3.75732 6.95898L3.76359 8.94884L5.62966 8.94215L5.62339 6.9523Z" fill="white"/>
<path d="M14.9789 14.88L13.1128 14.8867L13.1191 16.8766L14.9851 16.8699L14.9789 14.88Z" fill="white"/>
<path d="M10.3138 14.8957L8.44775 14.9023L8.45402 16.8922L10.3201 16.8855L10.3138 14.8957Z" fill="white"/>
<path d="M5.6483 14.9132L3.78223 14.9199L3.7885 16.9098L5.65456 16.9031L5.6483 14.9132Z" fill="white"/>
</svg>
