<svg width="31" height="29" viewBox="0 0 31 29" fill="none" xmlns="http://www.w3.org/2000/svg">
<g id="Group 149">
<path id="Vector" d="M30.2578 28.8525H22.8493C22.6856 28.8525 22.5285 28.7834 22.4127 28.6604C22.297 28.5375 22.2319 28.3707 22.2319 28.1968C22.2319 28.0228 22.297 27.8561 22.4127 27.7331C22.5285 27.6101 22.6856 27.541 22.8493 27.541H30.2578C30.4215 27.541 30.5786 27.6101 30.6943 27.7331C30.8101 27.8561 30.8752 28.0228 30.8752 28.1968C30.8752 28.3707 30.8101 28.5375 30.6943 28.6604C30.5786 28.7834 30.4215 28.8525 30.2578 28.8525Z" fill="white"/>
<path id="Vector_2" d="M20.3797 28.8535H16.6755C16.5117 28.8535 16.3547 28.7844 16.2389 28.6614C16.1231 28.5385 16.0581 28.3717 16.0581 28.1978V17.3781C16.0597 16.4221 16.418 15.5057 17.0544 14.8297C17.6909 14.1538 18.5536 13.7732 19.4537 13.7715C20.3537 13.7732 21.2164 14.1538 21.8529 14.8297C22.4893 15.5057 22.8476 16.4221 22.8492 17.3781C22.7353 18.4725 22.3638 19.5189 21.7688 20.4207C21.3952 20.9842 21.1328 21.6221 20.9971 22.2961V28.1978C20.9971 28.3717 20.932 28.5385 20.8163 28.6614C20.7005 28.7844 20.5435 28.8535 20.3797 28.8535ZM17.2929 27.542H19.7624V22.2961C19.8744 21.3864 20.1945 20.5196 20.6946 19.7715C21.166 19.0569 21.4804 18.2389 21.6145 17.3781C21.6145 16.7694 21.3868 16.1856 20.9816 15.7552C20.5763 15.3248 20.0267 15.083 19.4537 15.083C18.8806 15.083 18.331 15.3248 17.9257 15.7552C17.5205 16.1856 17.2929 16.7694 17.2929 17.3781V27.542Z" fill="white"/>
<path id="Vector_3" d="M6.17992 28.8535H2.47568C2.31194 28.8535 2.1549 28.7844 2.03912 28.6614C1.92334 28.5385 1.8583 28.3717 1.8583 28.1978V22.2961C1.72078 21.6216 1.45616 20.9837 1.0804 20.4207C0.485464 19.5189 0.113905 18.4725 0 17.3781C0.00163202 16.4221 0.3599 15.5057 0.996337 14.8297C1.63277 14.1538 2.4955 13.7732 3.39556 13.7715C4.29561 13.7732 5.15834 14.1538 5.79478 14.8297C6.43122 15.5057 6.78948 16.4221 6.79112 17.3781V28.1978C6.79112 28.3706 6.72693 28.5364 6.61249 28.6591C6.49804 28.7819 6.34259 28.8518 6.17992 28.8535ZM3.09305 27.542H5.56255V17.3781C5.56255 16.7694 5.33488 16.1856 4.92965 15.7552C4.52442 15.3248 3.97482 15.083 3.40174 15.083C2.82866 15.083 2.27904 15.3248 1.87381 15.7552C1.46858 16.1856 1.24093 16.7694 1.24093 17.3781C1.37504 18.2389 1.68939 19.0569 2.16081 19.7715C2.66093 20.5196 2.981 21.3864 3.09305 22.2961V27.542Z" fill="white"/>
<path id="Vector_4" d="M19.1448 15.0823C18.9811 15.0823 18.824 15.0132 18.7082 14.8902C18.5925 14.7672 18.5274 14.6005 18.5274 14.4265V12.4593C18.5274 10.9118 15.7369 9.18062 11.7363 9.18062C7.73573 9.18062 4.9452 10.9118 4.9452 12.4593V14.4265C4.9452 14.6005 4.88014 14.7672 4.76436 14.8902C4.64858 15.0132 4.49156 15.0823 4.32782 15.0823C4.16409 15.0823 4.00704 15.0132 3.89126 14.8902C3.77548 14.7672 3.71045 14.6005 3.71045 14.4265V12.4593C3.71045 9.88882 7.23566 7.86914 11.7363 7.86914C16.237 7.86914 19.7622 9.88882 19.7622 12.4593V14.4265C19.7622 14.6005 19.6971 14.7672 19.5813 14.8902C19.4656 15.0132 19.3085 15.0823 19.1448 15.0823Z" fill="white"/>
<path id="Vector_5" d="M16.6752 20.9838C16.5115 20.9838 16.3545 20.9147 16.2387 20.7917C16.1229 20.6687 16.0579 20.502 16.0579 20.328C16.0579 19.9477 14.4342 19.0166 11.4276 19.0166C8.42094 19.0166 6.79725 19.9477 6.79725 20.328C6.79725 20.502 6.73219 20.6687 6.61641 20.7917C6.50063 20.9147 6.34361 20.9838 6.17987 20.9838C6.01614 20.9838 5.85909 20.9147 5.74331 20.7917C5.62753 20.6687 5.5625 20.502 5.5625 20.328C5.5625 18.5248 8.59998 17.7051 11.4276 17.7051C14.2551 17.7051 17.2926 18.5248 17.2926 20.328C17.2926 20.502 17.2276 20.6687 17.1118 20.7917C16.996 20.9147 16.839 20.9838 16.6752 20.9838Z" fill="white"/>
<path id="Vector_6" d="M16.6752 26.8857H6.17987C6.01614 26.8857 5.85909 26.8166 5.74331 26.6936C5.62753 26.5707 5.5625 26.4039 5.5625 26.23C5.5625 26.056 5.62753 25.8893 5.74331 25.7663C5.85909 25.6433 6.01614 25.5742 6.17987 25.5742H16.6752C16.839 25.5742 16.996 25.6433 17.1118 25.7663C17.2276 25.8893 17.2926 26.056 17.2926 26.23C17.2926 26.4039 17.2276 26.5707 17.1118 26.6936C16.996 26.8166 16.839 26.8857 16.6752 26.8857Z" fill="white"/>
<path id="Vector_7" d="M25.9357 28.8528C25.772 28.8528 25.615 28.7837 25.4992 28.6608C25.3834 28.5378 25.3184 28.371 25.3184 28.1971V8.52488C25.3184 8.35097 25.3834 8.18418 25.4992 8.0612C25.615 7.93823 25.772 7.86914 25.9357 7.86914C26.0995 7.86914 26.2565 7.93823 26.3723 8.0612C26.4881 8.18418 26.5531 8.35097 26.5531 8.52488V28.1971C26.5531 28.371 26.4881 28.5378 26.3723 28.6608C26.2565 28.7837 26.0995 28.8528 25.9357 28.8528Z" fill="white"/>
<path id="Vector_8" d="M30.2577 9.18036H21.6144C21.4507 9.18036 21.2937 9.11128 21.1779 8.9883C21.0621 8.86533 20.9971 8.69854 20.9971 8.52462V7.86888C20.9972 7.79285 21.0097 7.71741 21.0341 7.64593L23.5036 0.432791C23.5467 0.306056 23.6256 0.196513 23.7294 0.119074C23.8333 0.0416348 23.9571 5.73377e-05 24.0839 0H27.7882C27.9151 5.73377e-05 28.0388 0.0416348 28.1427 0.119074C28.2465 0.196513 28.3254 0.306056 28.3685 0.432791L30.838 7.64593C30.8624 7.71741 30.875 7.79285 30.8751 7.86888V8.52462C30.8751 8.69854 30.81 8.86533 30.6942 8.9883C30.5784 9.11128 30.4214 9.18036 30.2577 9.18036ZM22.2689 7.86888H29.6033L27.356 1.31148H24.5408L22.2689 7.86888Z" fill="white"/>
<path id="Vector_9" d="M28.4055 14.4265C28.2417 14.4265 28.0847 14.3575 27.9689 14.2345C27.8531 14.1115 27.7881 13.9447 27.7881 13.7708V8.52488C27.7881 8.35097 27.8531 8.18418 27.9689 8.0612C28.0847 7.93823 28.2417 7.86914 28.4055 7.86914C28.5692 7.86914 28.7262 7.93823 28.842 8.0612C28.9578 8.18418 29.0228 8.35097 29.0228 8.52488V13.7708C29.0228 13.9447 28.9578 14.1115 28.842 14.2345C28.7262 14.3575 28.5692 14.4265 28.4055 14.4265Z" fill="white"/>
</g>
</svg>
