<svg width="32" height="32" viewBox="0 0 32 32" fill="none" xmlns="http://www.w3.org/2000/svg">
<g id="truck-01">
<path id="Icon" d="M18.6665 9.33398H21.7828C22.109 9.33398 22.272 9.33398 22.4255 9.37082C22.5615 9.40349 22.6916 9.45736 22.8109 9.53046C22.9454 9.61292 23.0607 9.72822 23.2913 9.95882L28.7083 15.3758C28.9389 15.6064 29.0542 15.7217 29.1367 15.8563C29.2098 15.9756 29.2637 16.1056 29.2963 16.2417C29.3332 16.3951 29.3332 16.5582 29.3332 16.8843V20.6673C29.3332 21.2886 29.3332 21.5992 29.2317 21.8442C29.0964 22.1709 28.8368 22.4305 28.5101 22.5658C28.2651 22.6673 27.9544 22.6673 27.3332 22.6673M20.6665 22.6673H18.6665M18.6665 22.6673V9.60065C18.6665 8.10718 18.6665 7.36044 18.3759 6.79001C18.1202 6.28824 17.7122 5.8803 17.2105 5.62463C16.64 5.33398 15.8933 5.33398 14.3998 5.33398H6.93317C5.4397 5.33398 4.69296 5.33398 4.12253 5.62463C3.62076 5.8803 3.21282 6.28824 2.95715 6.79001C2.6665 7.36044 2.6665 8.10718 2.6665 9.60065V20.0007C2.6665 21.4734 3.86041 22.6673 5.33317 22.6673M18.6665 22.6673H13.3332M13.3332 22.6673C13.3332 24.8765 11.5423 26.6673 9.33317 26.6673C7.12403 26.6673 5.33317 24.8765 5.33317 22.6673M13.3332 22.6673C13.3332 20.4582 11.5423 18.6673 9.33317 18.6673C7.12403 18.6673 5.33317 20.4582 5.33317 22.6673M27.3332 23.334C27.3332 25.1749 25.8408 26.6673 23.9998 26.6673C22.1589 26.6673 20.6665 25.1749 20.6665 23.334C20.6665 21.493 22.1589 20.0007 23.9998 20.0007C25.8408 20.0007 27.3332 21.493 27.3332 23.334Z" stroke="white" stroke-width="2" stroke-linecap="round" stroke-linejoin="round"/>
</g>
</svg>
