<svg width="32" height="32" viewBox="0 0 32 32" fill="none" xmlns="http://www.w3.org/2000/svg">
<g id="moon-star">
<g id="Icon">
<path d="M23.9998 2.66602L24.8236 4.31346C25.1775 5.02143 25.3545 5.37542 25.591 5.68217C25.8008 5.95436 26.0448 6.19838 26.317 6.4082C26.6238 6.64465 26.9778 6.82164 27.6857 7.17563L29.3332 7.99935L27.6857 8.82307C26.9778 9.17706 26.6238 9.35405 26.317 9.5905C26.0448 9.80032 25.8008 10.0443 25.591 10.3165C25.3545 10.6233 25.1775 10.9773 24.8236 11.6852L23.9998 13.3327L23.1761 11.6852C22.8221 10.9773 22.6451 10.6233 22.4087 10.3165C22.1989 10.0443 21.9549 9.80032 21.6827 9.5905C21.3759 9.35405 21.0219 9.17706 20.3139 8.82307L18.6665 7.99935L20.3139 7.17563C21.0219 6.82164 21.3759 6.64465 21.6827 6.4082C21.9549 6.19838 22.1989 5.95436 22.4087 5.68217C22.6451 5.37542 22.8221 5.02143 23.1761 4.31346L23.9998 2.66602Z" stroke="white" stroke-width="2" stroke-linecap="round" stroke-linejoin="round"/>
<path d="M27.9998 17.8517C26.2518 20.918 22.9525 22.9853 19.1704 22.9853C13.5613 22.9853 9.01417 18.4383 9.01417 12.8291C9.01417 9.04673 11.0818 5.74727 14.1485 3.99935C7.70623 4.61018 2.6665 10.0352 2.6665 16.6374C2.6665 23.6488 8.3504 29.3327 15.3618 29.3327C21.9637 29.3327 27.3885 24.2935 27.9998 17.8517Z" stroke="white" stroke-width="2" stroke-linecap="round" stroke-linejoin="round"/>
</g>
</g>
</svg>
