<svg width="32" height="32" viewBox="0 0 32 32" fill="none" xmlns="http://www.w3.org/2000/svg">
<g id="face-content">
<path id="Icon" d="M10.6665 18.666C10.6665 18.666 12.6665 21.3327 15.9998 21.3327C19.3332 21.3327 21.3332 18.666 21.3332 18.666M22.6665 12.3193C22.1398 12.966 21.4198 13.3327 20.6665 13.3327C19.9132 13.3327 19.2132 12.966 18.6665 12.3193M13.3332 12.3193C12.8065 12.966 12.0865 13.3327 11.3332 13.3327C10.5798 13.3327 9.87984 12.966 9.33317 12.3193M29.3332 15.9993C29.3332 23.3631 23.3636 29.3327 15.9998 29.3327C8.63604 29.3327 2.6665 23.3631 2.6665 15.9993C2.6665 8.63555 8.63604 2.66602 15.9998 2.66602C23.3636 2.66602 29.3332 8.63555 29.3332 15.9993Z" stroke="white" stroke-width="2" stroke-linecap="round" stroke-linejoin="round"/>
</g>
</svg>
